<?xml version="1.0" encoding="utf-8"?>
<!-- Generator: Adobe Illustrator 19.0.0, SVG Export Plug-In . SVG Version: 6.00 Build 0)  -->
<!DOCTYPE svg PUBLIC "-//W3C//DTD SVG 1.1//EN" "http://www.w3.org/Graphics/SVG/1.1/DTD/svg11.dtd">
<svg version="1.1" id="Layer_1" xmlns="http://www.w3.org/2000/svg" xmlns:xlink="http://www.w3.org/1999/xlink" x="0px" y="0px"
	 viewBox="-732 386 135 30" enable-background="new -732 386 135 30" xml:space="preserve">
<path fill="#5A6A8E" d="M-706.2,393.2l-12.2-7c-0.3-0.2-0.6-0.2-0.9,0l-12.2,7c-0.3,0.2-0.5,0.5-0.5,0.8V408c0,0.3,0.2,0.6,0.5,0.8
	l12.2,7c0.1,0.1,0.3,0.1,0.5,0.1s0.3,0,0.5-0.1l12.2-7c0.3-0.2,0.5-0.5,0.5-0.8V394C-705.8,393.6-705.9,393.3-706.2,393.2z
	 M-718.9,388l10.3,5.9l-10.3,5.9l-10.3-5.9L-718.9,388z M-730.1,395.6l10.3,5.9v11.9l-10.3-5.9V395.6z M-707.6,407.5l-10.3,5.9
	v-11.9l10.3-5.9V407.5z"/>
<path fill="#5A6A8E" d="M-691.9,406.1v-10.2h2.2v8.4h4.1v1.8H-691.9z M-671.7,401c0,1.7-0.4,3-1.3,3.9c-0.8,0.9-2,1.4-3.6,1.4
	c-1.6,0-2.8-0.5-3.6-1.4c-0.8-0.9-1.3-2.2-1.3-3.9c0-1.7,0.4-3,1.3-3.9c0.8-0.9,2-1.3,3.6-1.3s2.8,0.5,3.6,1.4
	C-672.1,398-671.7,399.3-671.7,401z M-679.1,401c0,1.1,0.2,2,0.6,2.6c0.4,0.6,1.1,0.9,1.9,0.9c1.7,0,2.6-1.1,2.6-3.4
	c0-2.3-0.9-3.5-2.6-3.5c-0.9,0-1.5,0.3-1.9,0.9C-678.9,399-679.1,399.9-679.1,401z M-662.7,400.4h4.1v5.3c-0.7,0.2-1.3,0.4-1.9,0.5
	c-0.6,0.1-1.2,0.1-1.8,0.1c-1.5,0-2.7-0.5-3.5-1.4c-0.8-0.9-1.2-2.2-1.2-3.9c0-1.6,0.5-2.9,1.4-3.9c0.9-0.9,2.3-1.4,3.9-1.4
	c1,0,2.1,0.2,3,0.6l-0.7,1.7c-0.7-0.4-1.5-0.6-2.3-0.6c-0.9,0-1.7,0.3-2.2,0.9s-0.8,1.5-0.8,2.5c0,1.1,0.2,2,0.7,2.5
	c0.5,0.6,1.1,0.9,2,0.9c0.5,0,0.9,0,1.4-0.1v-2.1h-1.9V400.4z M-644,401c0,1.7-0.4,3-1.3,3.9c-0.8,0.9-2,1.4-3.6,1.4
	c-1.6,0-2.8-0.5-3.6-1.4c-0.8-0.9-1.3-2.2-1.3-3.9c0-1.7,0.4-3,1.3-3.9c0.8-0.9,2-1.3,3.6-1.3s2.8,0.5,3.6,1.4
	C-644.4,398-644,399.3-644,401z M-651.4,401c0,1.1,0.2,2,0.6,2.6c0.4,0.6,1.1,0.9,1.9,0.9c1.7,0,2.6-1.1,2.6-3.4
	c0-2.3-0.9-3.5-2.6-3.5c-0.9,0-1.5,0.3-1.9,0.9C-651.2,399-651.4,399.9-651.4,401z M-634.9,406.1h-2.2v-8.4h-2.8v-1.8h7.7v1.8h-2.8
	V406.1z M-623.7,400.1l2.1-4.2h2.3l-3.4,6.2v4h-2.2v-3.9l-3.4-6.3h2.3L-623.7,400.1z M-607.7,399.1c0,1.1-0.3,1.9-1,2.5
	c-0.7,0.6-1.7,0.9-2.9,0.9h-0.9v3.6h-2.2v-10.2h3.3c1.2,0,2.2,0.3,2.8,0.8C-608,397.2-607.7,398-607.7,399.1z M-612.6,400.7h0.7
	c0.7,0,1.2-0.1,1.5-0.4c0.3-0.3,0.5-0.6,0.5-1.1c0-0.5-0.1-0.9-0.4-1.1c-0.3-0.2-0.7-0.4-1.3-0.4h-1V400.7z M-597,406.1h-5.9v-10.2
	h5.9v1.8h-3.7v2.2h3.5v1.8h-3.5v2.6h3.7V406.1z"/>
</svg>
